<?xml version="1.0" encoding="utf-8"?>
<!-- Generator: Adobe Illustrator 23.0.2, SVG Export Plug-In . SVG Version: 6.00 Build 0)  -->
<svg version="1.1" id="Layer_1" xmlns="http://www.w3.org/2000/svg" xmlns:xlink="http://www.w3.org/1999/xlink" x="0px" y="0px"
	 viewBox="0 0 50 23" style="enable-background:new 0 0 50 23;" xml:space="preserve">
<style type="text/css">
	.st0{fill:#FFFFFF;}
</style>
<g id="surface1_4_">
	<path class="st0" d="M17.46,9.93c-2.23,0-4.04,1.81-4.05,4.05c0,2.13,3.6,7,3.75,7.21c0.07,0.09,0.18,0.15,0.3,0.15
		c0.12,0,0.23-0.06,0.3-0.15c0.15-0.21,3.75-5.08,3.75-7.21C21.5,11.74,19.69,9.93,17.46,9.93z M17.46,20.34
		c-1.14-1.6-3.31-4.93-3.31-6.36c0-1.83,1.48-3.31,3.31-3.31s3.31,1.48,3.31,3.31C20.77,15.41,18.6,18.74,17.46,20.34z"/>
	<path class="st0" d="M17.46,11.77c-1.22,0-2.21,0.99-2.21,2.21s0.99,2.21,2.21,2.21c1.22,0,2.21-0.99,2.21-2.21
		C19.66,12.76,18.67,11.77,17.46,11.77z M17.46,15.45c-0.81,0-1.47-0.66-1.47-1.47s0.66-1.47,1.47-1.47c0.81,0,1.47,0.66,1.47,1.47
		S18.27,15.45,17.46,15.45z"/>
	<path class="st0" d="M31.43,0c-2.23,0-4.04,1.81-4.05,4.05c0,2.13,3.6,7,3.75,7.21c0.07,0.09,0.18,0.15,0.3,0.15
		c0.12,0,0.23-0.06,0.3-0.15c0.15-0.21,3.75-5.08,3.75-7.21C35.48,1.81,33.67,0,31.43,0z M31.43,10.41
		c-1.14-1.6-3.31-4.93-3.31-6.36c0-1.83,1.48-3.31,3.31-3.31s3.31,1.48,3.31,3.31C34.74,5.48,32.57,8.81,31.43,10.41z"/>
	<path class="st0" d="M31.43,1.84c-1.22,0-2.21,0.99-2.21,2.21s0.99,2.21,2.21,2.21c1.22,0,2.21-0.99,2.21-2.21
		C33.64,2.83,32.65,1.84,31.43,1.84z M31.43,5.52c-0.81,0-1.47-0.66-1.47-1.47s0.66-1.47,1.47-1.47c0.81,0,1.47,0.66,1.47,1.47
		S32.24,5.52,31.43,5.52z"/>
	<path class="st0" d="M26.76,12.06c-0.77,0.63-1.21,1.57-1.21,2.56v2.66c0,2.23-1.81,4.04-4.05,4.05h-3.31v0.74h3.31
		c2.64,0,4.78-2.14,4.78-4.78v-2.66c0-0.77,0.35-1.5,0.94-1.99c0.6-0.49,1.38-0.68,2.14-0.53l2,0.4l0.14-0.72l-2-0.4
		C28.53,11.18,27.53,11.43,26.76,12.06z"/>
</g>
</svg>
