<?xml version="1.0" encoding="utf-8"?>
<!-- Generator: Adobe Illustrator 23.0.2, SVG Export Plug-In . SVG Version: 6.00 Build 0)  -->
<svg version="1.1" id="Layer_1" xmlns="http://www.w3.org/2000/svg" xmlns:xlink="http://www.w3.org/1999/xlink" x="0px" y="0px"
	 viewBox="0 0 50 23" style="enable-background:new 0 0 50 23;" xml:space="preserve">
<style type="text/css">
	.st0{fill:#FFFFFF;}
</style>
<g>
	<path class="st0" d="M16.81,3.57h9.34v2.18c0,0.17,0.14,0.31,0.31,0.31h2.18v2.49h0.62v-2.8c0-0.09-0.04-0.16-0.09-0.22l-2.49-2.49
		c-0.06-0.06-0.13-0.09-0.22-0.09h-8.41V2.32h11.83v6.85h0.62V2.01c0-0.17-0.14-0.31-0.31-0.31H17.74c-0.17,0-0.31,0.14-0.31,0.31
		v0.93H16.5c-0.17,0-0.31,0.14-0.31,0.31v17.43c0,0.17,0.14,0.31,0.31,0.31h10.58v-0.62H16.81V3.57z M26.77,4.01l1.43,1.43h-1.43
		V4.01z"/>
	<path class="st0" d="M33.31,11.04h-0.47c-1.39,0-2.7-0.61-3.59-1.68l-0.06-0.08c-0.12-0.14-0.36-0.14-0.48,0l-0.06,0.08
		c-0.89,1.07-2.2,1.68-3.59,1.68h-0.47c-0.17,0-0.31,0.14-0.31,0.31v5.04c0,1.23,0.66,2.37,1.73,2.97l2.79,1.59
		c0.05,0.03,0.1,0.04,0.15,0.04s0.11-0.01,0.15-0.04l2.79-1.59c1.06-0.61,1.73-1.75,1.73-2.97v-5.04
		C33.62,11.18,33.48,11.04,33.31,11.04z M33,16.39c0,1-0.54,1.94-1.41,2.43l-2.64,1.51l-2.64-1.51c-0.87-0.5-1.41-1.43-1.41-2.43
		v-4.73h0.16c1.49,0,2.89-0.62,3.89-1.7c1,1.09,2.4,1.7,3.89,1.7H33V16.39z"/>
	<path class="st0" d="M28.95,11.97c-1.89,0-3.42,1.54-3.42,3.42s1.54,3.42,3.42,3.42c1.89,0,3.42-1.54,3.42-3.42
		S30.84,11.97,28.95,11.97z M28.95,18.2c-1.54,0-2.8-1.26-2.8-2.8s1.26-2.8,2.8-2.8s2.8,1.26,2.8,2.8S30.5,18.2,28.95,18.2z"/>
	<path class="st0" d="M28.8,16.36l-0.57-0.57l-0.44,0.44l0.93,0.93c0.06,0.06,0.14,0.09,0.22,0.09c0.03,0,0.05,0,0.08-0.01
		c0.11-0.03,0.19-0.11,0.22-0.21l0.93-3.11l-0.6-0.18L28.8,16.36z"/>
	<path class="st0" d="M17.43,6.68h8.09V7.3h-8.09V6.68z"/>
	<path class="st0" d="M17.43,7.93h8.09v0.62h-8.09V7.93z"/>
	<path class="st0" d="M17.43,9.17h8.09v0.62h-8.09V9.17z"/>
	<path class="st0" d="M17.43,10.42h6.23v0.62h-6.23V10.42z"/>
	<path class="st0" d="M17.43,11.66h6.23v0.62h-6.23V11.66z"/>
	<path class="st0" d="M17.43,12.91h6.23v0.62h-6.23V12.91z"/>
	<path class="st0" d="M17.43,16.64h6.23v0.62h-6.23V16.64z"/>
	<path class="st0" d="M17.43,17.89h6.23v0.62h-6.23V17.89z"/>
	<path class="st0" d="M17.43,19.13h6.23v0.62h-6.23V19.13z"/>
	<path class="st0" d="M17.74,4.19h0.62v0.62h-0.62V4.19z"/>
	<path class="st0" d="M18.99,4.19h0.62v0.62h-0.62V4.19z"/>
	<path class="st0" d="M20.24,4.19h0.62v0.62h-0.62V4.19z"/>
	<path class="st0" d="M21.48,4.19h4.05v0.62h-4.05V4.19z"/>
</g>
</svg>
