<?xml version="1.0" encoding="utf-8"?>
<!-- Generator: Adobe Illustrator 23.0.2, SVG Export Plug-In . SVG Version: 6.00 Build 0)  -->
<svg version="1.1" id="Layer_1" xmlns="http://www.w3.org/2000/svg" xmlns:xlink="http://www.w3.org/1999/xlink" x="0px" y="0px"
	 viewBox="0 0 50 23" style="enable-background:new 0 0 50 23;" xml:space="preserve">
<style type="text/css">
	.st0{fill:#FFFFFF;}
	.st1{fill:#EFC75E;}
</style>
<g>
	<g>
		<g>
			<path class="st0" d="M20.41,4.91l-2.18,13.56h3.48l2.18-13.56H20.41z M30.91,10.43c-1.22-0.6-1.96-1.01-1.96-1.62
				c0.01-0.56,0.63-1.13,2.01-1.13c1.13-0.03,1.96,0.24,2.59,0.5l0.32,0.14l0.47-2.84c-0.69-0.27-1.78-0.56-3.12-0.56
				c-3.44,0-5.86,1.79-5.87,4.34c-0.03,1.89,1.73,2.93,3.05,3.56c1.35,0.64,1.81,1.06,1.81,1.63c-0.01,0.88-1.09,1.28-2.09,1.28
				c-1.39,0-2.13-0.21-3.27-0.7l-0.46-0.21l-0.49,2.95c0.82,0.36,2.32,0.68,3.88,0.7c3.65,0,6.03-1.76,6.06-4.49
				C33.85,12.51,32.92,11.36,30.91,10.43z M43.26,4.95h-2.69c-0.83,0-1.46,0.24-1.82,1.09l-5.17,12.42h3.65l1.01-2.69h4.09l0.52,2.7
				h3.22L43.26,4.95z M39.25,13.06c0.07,0.01,1.4-4.39,1.4-4.39l1.06,4.39C41.71,13.06,39.94,13.06,39.25,13.06z M15.32,4.91
				l-3.41,9.21l-0.37-1.82c-0.63-2.1-2.61-4.37-4.81-5.5l3.12,11.65h3.68l5.47-13.54L15.32,4.91L15.32,4.91z"/>
		</g>
	</g>
	<path class="st1" d="M10.39,6.65c-0.27-1.03-1.11-1.73-2.26-1.75h-5.4L2.67,5.16c4.21,1.04,7.75,4.24,8.9,7.24L10.39,6.65z"/>
</g>
</svg>
